<?xml version="1.0" encoding="utf-8"?>
<!-- Generator: Adobe Illustrator 21.1.0, SVG Export Plug-In . SVG Version: 6.00 Build 0)  -->
<svg version="1.1" xmlns="http://www.w3.org/2000/svg" xmlns:xlink="http://www.w3.org/1999/xlink" x="0px" y="0px"
	 viewBox="0 0 423.1 360" style="enable-background:new 0 0 423.1 360;" xml:space="preserve">
<style type="text/css">
	.st0{display:none;}
	.st1{display:inline;}
	.st2{fill:#FFFFFF;}
	.st3{fill:#AF732A;stroke:#B7962F;stroke-miterlimit:10;}
	.st4{opacity:0.77;fill:#C72026;stroke:#62140C;stroke-width:24;stroke-miterlimit:10;}
	.st5{fill:#231F20;stroke:#231F20;stroke-miterlimit:10;}
	.st6{fill:none;stroke:#231F20;stroke-miterlimit:10;}
	.st7{fill:#FFFFFF;stroke:#231F20;stroke-miterlimit:10;}
	.st8{fill:#417DC0;}
	.st9{fill:#356531;}
	.st10{fill:#C02026;stroke:#711A12;stroke-width:4;stroke-miterlimit:10;}
	.st11{fill:none;stroke:#2B3E99;stroke-miterlimit:10;}
</style>
<g id="Layer_1" class="st0">
	<g class="st1">
		<g>
			<path class="st2" d="M196.8,360.2c0-52.3,0-104.7,0-157c35.3,0,70.5,0,105.8,0c0,52.3,0,104.7,0,157
				C267.4,360.2,232.1,360.2,196.8,360.2z M252.6,325.6c0-0.2,0-0.3,0-0.5c0.8-0.6,1.7-1.1,2.5-1.8c2.9-2.4,6-4.6,8.6-7.2
				c2.3-2.3,4.1-5.1,6-7.9c0.7-1,1.2-2.3,1.4-3.6c0.4-3,0.6-6,0.8-9c0.2-2.7,0.2-5.4,0.3-8.1c0.1-5,0.2-10.1-0.8-15
				c-0.1-0.5-0.2-1-0.3-1.5c-0.5-1.4-1.1-2.8-1.5-4.2c-0.8-3.2-1.5-6.4-2.2-9.6c-0.4-1.8-0.7-3.5-1.1-5.3c-0.2-0.9-0.6-1.9-1-2.7
				c-1.5-2.7-3.2-5.3-5.7-7.4c-2.2-1.9-4.3-3.9-6.9-5.2c-3.9-1.9-7.7-4-11.5-5.9c-1.1-0.5-1.2-1.3-1.2-2.3c-0.2-3.1-0.3-6.2-0.5-9.3
				c-0.1-1.1-0.1-2.3-0.5-3.3c-0.6-1.5-1.6-2.8-3-3.8c-1.2-0.9-1.6-2.6-3.2-3.1c-0.1,0-0.1-0.3-0.2-0.4c-0.3-0.7-0.6-1.6-1.1-2.2
				c-1.5-1.8-2.8-3.1-5.7-1.9c-0.6,0.2-1.1,0.4-1.5,0.5c-0.5-0.5-0.8-1-1.2-1.1c-2.2-0.6-4,0.8-6,1.4c-0.1,0-0.2,0.3-0.3,0.4
				c-0.5,0.6-0.9,1.2-1.9,0.9c-0.6-0.1-1.4,0-1.4,1c-0.1,1.7-0.2,1.7-1.8,1.7c-0.4,0-0.9,0-1.3-0.1c-1-0.2-2-0.2-2,1.2
				c-0.4-0.1-0.8-0.2-1.4-0.3c0.3,0.9,0.6,1.5,0.8,2.2c0.1,0.5,0.1,1,0.1,1.6c0,0.3-0.2,0.5-0.2,0.8c-0.2,1.7-0.4,3.4-0.4,5.1
				c0,0.6,0.2,1.4,0.6,1.8c0.7,0.8,1.3,1.6,1.2,2.7c-0.1,1.3,0.6,2.3,1.8,2.8c0.3,0.1,0.7,0.2,0.9,0.4c0.2,0.3,0.5,0.7,0.5,1
				c0,0.9-0.2,1.7-0.3,2.6c-0.2,1.1,0.3,1.4,1.3,1.5c0.6,0.1,1.5,0.2,1.7,0.7c1,1.6,1.8,3.3,2.6,5c0.3,0.6,0.5,0.9,1.1,1
				c1.1,0.2,2.2,0.5,3.6,0.9c-0.9,1.2-1.6,2.2-2.4,3.2c-2.4,2.9-4.4,6.1-4.9,10c-0.1,1-0.4,2-0.5,3c-0.1,1-0.1,2,0.1,3
				c0.2,1,0.7,1.8,1.2,2.7c0.4,0.9,0.8,1.8,1.4,2.6c1.5,2.1,2.8,4.3,3.6,6.7c0.7,2,1.2,4.1,1.6,6.2c0.2,0.8,0.5,1.1,1.3,1.2
				c0.4,0.1,1,0.3,1.1,0.7c0.7,1.5,1.1,3,1.2,4.7c0.1,1.9,0.6,3.7,0.9,5.7c0,0-0.3,0.1-0.6,0.2c-5,1.2-10.1,2-14.8,4.5
				c-1.9,1-3.8,2.1-6.1,2.4c-1.1,0.1-2.1,0.9-3.2,1.2c-0.7,0.2-1.3,0.4-1.6,1.2c-0.3,0.7-0.8,1.3-1.2,2c-1,1.5-1.7,3.1-1,4.9
				c1,2.6,2.9,4.5,5.4,5.7c4.2,2,8.5,3.9,12.8,5.9c0.2,0.1,0.6,0.3,0.6,0.5c0.2,0.7-0.6,2.5-1.4,2.9c-1.5,0.8-2.1,2.4-3.1,3.5
				c-0.5,0.5-1,1-1.4,1.4c-0.2,0.2-0.4,0.4-0.5,0.6c-0.3,0.6-0.6,1.3-0.8,1.9c-0.5,1.2-1.2,2.3-1.5,3.5c-0.4,1.9-0.9,3.8-1.9,5.6
				c-0.4,0.6-0.7,1.4-0.8,2.1c-0.2,2.9-0.4,5.7-0.5,8.6c-0.1,1.9,1.1,3.4,2.5,4.6c2.1,1.7,4.5,2.6,7.1,2.9
				c7.5,0.9,14.9,0.7,22.4,0.3c7.4-0.4,14.9-1.4,22.3-1.9c6.7-0.4,13.3-0.6,20-0.8c1.7,0,3.5,0.4,5.3,0.7c3.3,0.6,6.6,1.9,10,1.9
				c0.9,0,1.3,0.5,1.8,1.2c0.6,0.9,1.3,1.8,2.1,2.5c0.9,0.8,2.8,0.4,3.2-0.7c0.4-1,0.5-2.2,0.4-3.3c-0.1-1.1-0.6-2.1-0.9-3.2
				c-1.4,0.1-2.2-1-3.1-2c-0.9-1-1.8-2.1-2.7-3.2c-0.4-0.5-0.9-0.8-1.3-1.3c-0.7-1-1.3-2.1-2-3.1c-1.1-1.7-2.3-3.2-4.7-2.6
				c-0.8,0.2-1.6,0-2.4,0.1c-0.4,0-0.9,0.2-1.3,0.4c-0.6,0.2-1.1,0.6-1.6,0.8c-2.7,1.2-5.5,1.4-8.4,1.6c-2.6,0.2-5.1,0.3-7.7,0.3
				c-2,0-4-0.1-6.1-0.1c0-2.7,1.1-4.8,1.8-6.9c0.2-0.8,0.8-1.5,1-2.2c0.4-1.2,0.9-2.5,0.9-3.7c0-1.2-0.4-2.1-1.8-2.4
				c-0.8-0.2-1.6-0.6-2.4-0.9c-0.7-0.2-1.4-0.5-2.1-0.6C255.8,326.1,254.2,325.9,252.6,325.6z"/>
			<path d="M252.6,325.6c1.6,0.2,3.2,0.5,4.8,0.8c0.7,0.1,1.4,0.4,2.1,0.6c0.8,0.3,1.6,0.7,2.4,0.9c1.4,0.3,1.8,1.2,1.8,2.4
				c0,1.2-0.5,2.5-0.9,3.7c-0.2,0.8-0.8,1.5-1,2.2c-0.7,2.2-1.8,4.2-1.8,6.9c2.1,0,4.1,0.1,6.1,0.1c2.6,0,5.2-0.1,7.7-0.3
				c2.9-0.2,5.7-0.4,8.4-1.6c0.6-0.2,1.1-0.6,1.6-0.8c0.4-0.2,0.9-0.3,1.3-0.4c0.8-0.1,1.6,0.1,2.4-0.1c2.4-0.5,3.6,0.9,4.7,2.6
				c0.7,1,1.3,2.1,2,3.1c0.3,0.5,0.9,0.9,1.3,1.3c0.9,1,1.8,2.1,2.7,3.2c0.9,1,1.7,2.1,3.1,2c0.3,1.1,0.8,2.2,0.9,3.2
				c0.1,1.1,0,2.3-0.4,3.3c-0.4,1.1-2.3,1.5-3.2,0.7c-0.8-0.7-1.5-1.6-2.1-2.5c-0.5-0.7-0.9-1.2-1.8-1.2c-3.4,0-6.7-1.3-10-1.9
				c-1.7-0.3-3.5-0.7-5.3-0.7c-6.7,0.2-13.4,0.4-20,0.8c-7.4,0.5-14.9,1.5-22.3,1.9c-7.5,0.4-14.9,0.6-22.4-0.3
				c-2.6-0.3-5.1-1.2-7.1-2.9c-1.4-1.1-2.5-2.6-2.5-4.6c0.1-2.9,0.2-5.7,0.5-8.6c0.1-0.7,0.4-1.5,0.8-2.1c1-1.7,1.5-3.6,1.9-5.6
				c0.3-1.2,1-2.3,1.5-3.5c0.3-0.6,0.5-1.3,0.8-1.9c0.1-0.2,0.3-0.4,0.5-0.6c0.5-0.5,1-1,1.4-1.4c1.1-1.1,1.6-2.7,3.1-3.5
				c0.7-0.4,1.6-2.1,1.4-2.9c-0.1-0.2-0.4-0.4-0.6-0.5c-4.3-2-8.5-3.8-12.8-5.9c-2.5-1.2-4.4-3-5.4-5.7c-0.7-1.8,0-3.4,1-4.9
				c0.5-0.6,1-1.3,1.2-2c0.3-0.8,0.8-1,1.6-1.2c1.1-0.3,2.1-1,3.2-1.2c2.3-0.3,4.2-1.4,6.1-2.4c4.7-2.4,9.8-3.3,14.8-4.5
				c0.3-0.1,0.5-0.1,0.6-0.2c-0.3-1.9-0.8-3.8-0.9-5.7c-0.1-1.7-0.5-3.2-1.2-4.7c-0.2-0.3-0.7-0.6-1.1-0.7c-0.8-0.1-1.1-0.4-1.3-1.2
				c-0.4-2.1-0.9-4.2-1.6-6.2c-0.9-2.4-2.1-4.6-3.6-6.7c-0.6-0.8-1-1.7-1.4-2.6c-0.4-0.9-0.9-1.8-1.2-2.7c-0.2-1-0.2-2-0.1-3
				c0.1-1,0.4-2,0.5-3c0.5-3.9,2.5-7.1,4.9-10c0.8-1,1.5-2,2.4-3.2c-1.4-0.3-2.5-0.6-3.6-0.9c-0.6-0.1-0.8-0.4-1.1-1
				c-0.8-1.7-1.6-3.4-2.6-5c-0.3-0.4-1.1-0.6-1.7-0.7c-0.9-0.1-1.5-0.4-1.3-1.5c0.2-0.8,0.3-1.7,0.3-2.6c0-0.3-0.2-0.7-0.5-1
				c-0.2-0.2-0.6-0.3-0.9-0.4c-1.2-0.5-1.9-1.5-1.8-2.8c0.1-1.1-0.5-1.9-1.2-2.7c-0.4-0.5-0.6-1.2-0.6-1.8c0.1-1.7,0.3-3.4,0.4-5.1
				c0-0.3,0.2-0.5,0.2-0.8c0-0.5,0-1.1-0.1-1.6c-0.2-0.7-0.5-1.3-0.8-2.2c0.6,0.1,0.9,0.2,1.4,0.3c0-1.5,0.9-1.4,2-1.2
				c0.4,0.1,0.9,0,1.3,0.1c1.6,0,1.8-0.1,1.8-1.7c0-1,0.9-1.2,1.4-1c1,0.2,1.4-0.3,1.9-0.9c0.1-0.1,0.2-0.4,0.3-0.4
				c2-0.6,3.8-2,6-1.4c0.4,0.1,0.7,0.7,1.2,1.1c0.4-0.1,1-0.3,1.5-0.5c2.8-1.2,4.2,0.2,5.7,1.9c0.5,0.6,0.7,1.4,1.1,2.2
				c0.1,0.1,0.1,0.4,0.2,0.4c1.6,0.5,2,2.2,3.2,3.1c1.4,1,2.4,2.3,3,3.8c0.4,1,0.4,2.2,0.5,3.3c0.2,3.1,0.4,6.2,0.5,9.3
				c0.1,0.9,0.1,1.8,1.2,2.3c3.9,1.9,7.7,3.9,11.5,5.9c2.6,1.3,4.7,3.3,6.9,5.2c2.4,2.1,4.1,4.6,5.7,7.4c0.5,0.8,0.8,1.8,1,2.7
				c0.4,1.7,0.7,3.5,1.1,5.3c0.7,3.2,1.4,6.4,2.2,9.6c0.4,1.4,1,2.8,1.5,4.2c0.2,0.5,0.2,1,0.3,1.5c1,5,0.9,10,0.8,15
				c-0.1,2.7-0.1,5.4-0.3,8.1c-0.2,3-0.4,6-0.8,9c-0.2,1.2-0.7,2.5-1.4,3.6c-1.9,2.7-3.7,5.5-6,7.9c-2.6,2.7-5.7,4.9-8.6,7.2
				c-0.8,0.6-1.7,1.2-2.5,1.8C252.6,325.3,252.6,325.5,252.6,325.6z M237.8,338.5c0.1,0.1,0.1,0.2,0.2,0.3c3.3,0.2,6.7,0.4,10.1,0.7
				c-0.1-0.8-0.1-1.2-0.3-1.6c-0.9-1.6-1.9-3.2-2.8-4.8c-0.3-0.6-0.7-0.8-1.3-0.5c-1.1,0.5-2.2,1.1-3.4,1.6
				c-1.6,0.8-1.7,0.8-1.4,2.5C239.1,337.6,239.1,338.3,237.8,338.5z"/>
			<path class="st2" d="M237.8,338.5c1.3-0.2,1.3-0.9,1.1-1.8c-0.3-1.7-0.2-1.7,1.4-2.5c1.1-0.6,2.2-1.1,3.4-1.6
				c0.6-0.3,1-0.1,1.3,0.5c0.9,1.6,1.9,3.2,2.8,4.8c0.2,0.3,0.1,0.8,0.3,1.6c-3.5-0.2-6.8-0.4-10.1-0.7
				C237.9,338.7,237.9,338.6,237.8,338.5z"/>
		</g>
	</g>
</g>
<g id="Layer_3">
	<path class="st3" d="M36.3,137.4"/>
	<rect x="-0.2" y="-1.4" class="st4" width="423.1" height="360.2"/>
</g>
<g id="Layer_2">
	<path class="st5" d="M279.1,343.3c-2.3,3.9,8,1.2,19.4-0.2c0.3,0,0.5-0.3,0.7-0.6c3-3,7.9-2.2,10-1.7c0.6,0.2,1.2,0.5,1.5,1
		c1.9,2.5,2.5,3.9,2.7,4.7c0.1,0.5,0.1,0.6,0.1,0.6s-0.1-3.1,0-0.2c0.1,2.3,4.4,4.8,6.1,5.7c0.5,0.3,0.9,0.7,1.2,1.1
		c1.3,2.5,0.5,4.3-0.2,5.3c-0.4,0.6-1.1,0.9-1.9,1c-3.5,0.3-4.1,0-3.7-0.5c1-1.3,0.8-3.2-0.6-4c-4.9-2.8-15.2-2.4-15.2-2.4
		l-20.2,0.8l-16.8,1.4l-13.4,0.9c-0.1,0-0.2,0-0.2,0l-9.9-0.1c-0.1,0-0.1,0-0.2,0c-16.1-1.3-14.5-8.6-14.5-8.6
		c-0.6-7.2,0.8-9.6,1.8-10.4c0.4-0.4,0.8-0.9,0.9-1.5l0.8-3.6c0-0.2,0.1-0.4,0.2-0.6l2-4.3c0.1-0.2,0.2-0.4,0.4-0.6l2.3-2.7
		c0.1-0.1,0.1-0.1,0.2-0.2l2.2-2.1c3.9-4.1-0.7-5-2.1-5.1c-0.3,0-0.6-0.1-0.8-0.2l-10.5-4.8c-0.2-0.1-0.4-0.2-0.5-0.3
		c-6.9-5.1-3.6-8.9-2.1-10.2c0.4-0.3,0.7-0.8,0.8-1.3c0.5-1.8,1.6-1.9,2.3-1.7c0.5,0.1,1,0.1,1.5,0l2.5-0.8c0.1,0,0.1,0,0.2-0.1
		c9.2-3.8,14.1-5.4,16.8-6.2c1.5-0.4,2.3-1.9,1.9-3.3c-0.8-2.6-1.3-5.8-1.5-7.3c-0.1-0.5-0.3-0.9-0.6-1.3c-1.5-1.8-3.7-9-4.3-11.1
		c-0.1-0.4-0.3-0.7-0.6-1c-10.6-12.1-5.6-19.7-1-23.4c1.3-1,1.3-2.9,0.1-4.1c0,0,0,0,0,0c-2.1-2-1.2-5.4-3.3-6.5
		c-1-0.5-1.8,0.1-2.3-0.6c-0.9-1.1,0.9-2.9,0-4.3c-0.7-1.1-2.3-0.6-2.9-1.8c-0.6-1,0.4-1.9,0-3.3c-0.4-1.3-1.5-1.7-2-2.3
		c-1.8-2.7,3.8-14.4,12.9-15.6c6.7-0.9,12.6,4.3,15.1,6.5c1.6,1.4,2.3,2.1,2.9,3.1c3.4,6.2-2.9,13.6,0,16.6c1.1,1.1,1.9,0.1,5.7,1
		c3.5,0.8,6,2.7,11.1,6.5c3.4,2.5,5.1,3.7,6.6,5.7c2.3,2.8,3.3,5.5,4.1,7.6c3.8,10.6,4.7,19.4,4.7,19.4c1.8,18.3,2.8,27.4,0,33
		c-5.9,12-21.7,19.4-20.2,23.6c0.4,1.3,5.3-3,9.1-0.7c1,0.6,1.9,1.3,2.6,1.9c1.1,0.9,1.2,2.5,0.3,3.6c-1.2,1.5-1.7,2.3-1.9,2.6
		c-0.1,0.1-0.1,0.2-0.2,0.4C278,338,280.1,341.4,279.1,343.3z"/>
	<path class="st6" d="M282,327.7"/>
	<path class="st7" d="M241.1,341.8c0.5,0.8,2.3,1,5.9,1.4c2.3,0.2,2.5,0.1,4.5,0.4c4,0.5,4.7,0.7,5.4,0.7c10,0.1-0.9-10.1-6.2-10.8
		c-3.4-0.4-6,3.7-7.3,4.7C242.5,339,240.5,340.7,241.1,341.8z"/>
	<path class="st5" d="M135.5,342.8c2.7,4-9.5,1.2-23-0.2c-0.4,0-0.6-0.4-0.9-0.6c-3.5-3.1-9.4-2.3-11.8-1.7
		c-0.7,0.2-1.4,0.5-1.8,1.1c-2.2,2.6-3,4-3.2,4.8c-0.2,0.5-0.1,0.7-0.1,0.7s0.1-3.2,0-0.2c-0.1,2.4-5.3,4.9-7.3,5.8
		c-0.6,0.3-1.1,0.7-1.4,1.2c-1.6,2.6-0.6,4.4,0.3,5.5c0.5,0.6,1.4,0.9,2.2,1c4.1,0.3,4.8,0,4.4-0.5c-1.2-1.4-1-3.2,0.7-4.1
		c5.8-2.8,18-2.5,18-2.5l24,0.8l19.9,1.4l16,1c0.1,0,0.2,0,0.3,0l11.8-0.1c0.1,0,0.2,0,0.2,0c19.1-1.3,17.2-8.8,17.2-8.8
		c0.7-7.4-1-9.9-2.1-10.7c-0.5-0.4-0.9-0.9-1.1-1.5l-1-3.7c0-0.2-0.1-0.4-0.2-0.6l-2.4-4.4c-0.1-0.2-0.3-0.4-0.5-0.6l-2.7-2.8
		c-0.1-0.1-0.2-0.1-0.2-0.2l-2.7-2.2c-4.6-4.3,0.8-5.1,2.5-5.3c0.3,0,0.7-0.1,1-0.2l12.5-4.9c0.2-0.1,0.4-0.2,0.6-0.3
		c8.1-5.2,4.3-9.1,2.5-10.4c-0.5-0.4-0.8-0.8-1-1.4c-0.6-1.9-1.9-1.9-2.7-1.8c-0.6,0.1-1.2,0.1-1.7,0l-3-0.8c-0.1,0-0.2,0-0.2-0.1
		c-10.9-3.9-16.8-5.6-19.9-6.3c-1.7-0.4-2.7-1.9-2.2-3.4c0.9-2.7,1.5-5.9,1.8-7.5c0.1-0.5,0.4-1,0.8-1.4c1.8-1.8,4.4-9.3,5.1-11.4
		c0.1-0.4,0.4-0.7,0.7-1c12.6-12.4,6.6-20.2,1.2-24c-1.5-1.1-1.5-3-0.1-4.2c0,0,0,0,0,0c2.5-2.1,1.4-5.6,3.9-6.6
		c1.2-0.5,2.1,0.1,2.8-0.6c1-1.1-1-3,0-4.4c0.8-1.2,2.7-0.6,3.5-1.8c0.7-1.1-0.5-1.9,0-3.4c0.5-1.4,1.8-1.7,2.3-2.4
		c2.2-2.8-4.5-14.8-15.3-16.1c-7.9-0.9-14.9,4.4-17.9,6.6c-1.9,1.4-2.8,2.1-3.5,3.2c-4,6.4,3.4,14,0,17.1c-1.3,1.1-2.3,0.1-6.7,1
		c-4.1,0.8-7.2,2.8-13.2,6.6c-4,2.5-6,3.8-7.9,5.8c-2.7,2.9-4,5.6-4.9,7.8c-4.5,10.9-5.6,19.9-5.6,19.9c-2.2,18.8-3.3,28.1,0,33.9
		c7,12.3,25.8,19.9,24,24.2c-0.5,1.3-6.2-3-10.8-0.7c-1.2,0.6-2.3,1.3-3.1,1.9c-1.3,1-1.4,2.6-0.4,3.7c1.4,1.6,2,2.3,2.2,2.6
		c0.1,0.1,0.2,0.2,0.2,0.4C136.9,337.4,134.3,340.9,135.5,342.8z"/>
	<path class="st7" d="M166.5,340.8c0.5,0.8,2.3,1,5.9,1.4c2.3,0.2,2.5,0.1,4.5,0.4c4,0.5,4.7,0.7,5.4,0.7c10,0.1-0.9-10.1-6.2-10.8
		c-3.4-0.4-6,3.7-7.3,4.7C167.9,338,165.9,339.7,166.5,340.8z"/>
	<g>
		<path class="st8" d="M146.3,31.6c29.5-28.3,55.5-29.8,77.6-24.7c21.6,5.2,39.3,17,39.1,17.6c28.9,32.3,25.8,54.1,19.1,65.1
			c-7.3,11.5-18.2,12.2-18.1,12.6c-33.6-3.9-67.1-5-100.7-3.1c-29.8-4.7-37.6-22.7-34-38.3C132.3,44.9,146.7,31.5,146.3,31.6z"/>
	</g>
	<g>
		<path class="st8" d="M268.6,132.3c-30.7,20.3-54.9,20.1-76.3,16.1c-20.7-4.2-38.5-12.2-38.4-12.7c-29.7-21.6-28.4-35.6-22.3-42.9
			c6.5-7.5,17.9-8.4,17.7-8.6c34.9,1.8,69.8,1.6,104.7-0.8c30.8,2.5,37.6,15.9,33.1,27.4C283.2,122.7,268.1,132.4,268.6,132.3z"/>
	</g>
	<g>
		<path class="st3" d="M285.3,89.5c-6.6,7.7-3.5,12.3-3.5,12.3c-4.7,10.7-0.2,10.6-0.2,10.6"/>
		<path class="st3" d="M282.1,108.5c-6.5,7.3-3.4,11.1-3.4,11.1c-4.6,9.8-0.1,9.3-0.1,9.3"/>
		<path class="st3" d="M279.4,125.7c-6.8,7.2-3.7,11.4-3.7,11.4c-4.9,10-0.4,9.7-0.4,9.7"/>
		<path class="st3" d="M276.5,142.3c-6.2,4.5-3.6,9.7-3.6,9.7c-4.6,7.9-0.5,9.3-0.5,9.3"/>
		<path class="st3" d="M272.5,161.2c6.8-7.6,3.8-12.3,3.8-12.3c5-10.7,0.5-10.6,0.5-10.6"/>
		<path class="st3" d="M275.5,143.5c6.7-7.1,3.7-11,3.7-11c4.9-9.7,0.4-9.4,0.4-9.4"/>
		<path class="st3" d="M278.5,128c6.8-8.3,3.6-11.8,3.6-11.8c4.8-10.6,0.3-9.6,0.3-9.6"/>
		<path class="st3" d="M282.1,108.5c6.3-6.2,3.3-10.2,3.3-10.2c4.4-8.8,0.1-8.9,0.1-8.9"/>
		<path class="st3" d="M272.3,158.2c-6.6,7.7-3.5,12.3-3.5,12.3c-4.7,10.7-0.2,10.6-0.2,10.6"/>
		<path class="st3" d="M269.2,177.2c-6.5,7.3-3.4,11.1-3.4,11.1c-4.6,9.8-0.1,9.3-0.1,9.3"/>
		<path class="st3" d="M266.4,194.4c-6.8,7.2-3.7,11.4-3.7,11.4c-4.9,10-0.4,9.7-0.4,9.7"/>
		<path class="st3" d="M263.6,211c-6.2,4.5-3.6,9.7-3.6,9.7c-4.6,7.9-0.5,9.3-0.5,9.3"/>
		<path class="st3" d="M259.5,229.9c6.8-7.6,3.8-12.3,3.8-12.3c5-10.7,0.5-10.6,0.5-10.6"/>
		<path class="st3" d="M262.6,212.2c6.7-7.1,3.7-11,3.7-11c4.9-9.7,0.4-9.4,0.4-9.4"/>
		<path class="st3" d="M265.6,196.7c6.8-8.3,3.6-11.8,3.6-11.8c4.8-10.6,0.3-9.6,0.3-9.6"/>
		<path class="st3" d="M268.9,177.2c6.3-6.2,3.3-10.2,3.3-10.2c4.4-8.8,0.1-8.9,0.1-8.9"/>
	</g>
	<g>
		<path class="st3" d="M125.6,85.4c-3.4,10.3,2.3,13.2,2.3,13.2c0.2,12.2,5.1,10.1,5.1,10.1"/>
		<path class="st3" d="M131.6,104.8c-3.5,9.8,1.8,12,1.8,12c-0.2,11.3,4.5,8.9,4.5,8.9"/>
		<path class="st3" d="M137.1,122.3c-3.8,9.9,1.5,12.4,1.5,12.4c-0.4,11.6,4.4,9.3,4.4,9.3"/>
		<path class="st3" d="M142.3,139.3c-4.6,7.1,0.9,10.7,0.9,10.7c-1.1,9.5,4.1,9,4.1,9"/>
		<path class="st3" d="M147.2,158.9c3.7-10.2-1.9-13.3-1.9-13.3c0.2-12.3-4.8-10.3-4.8-10.3"/>
		<path class="st3" d="M141.8,140.9c3.8-9.8-1.4-12.1-1.4-12.1c0.5-11.4-4.2-9-4.2-9"/>
		<path class="st3" d="M137.4,124.9c3.3-10.9-1.9-12.8-1.9-12.8c0-12.2-4.5-9.1-4.5-9.1"/>
		<path class="st3" d="M131.6,104.8c3.9-8.7-1.5-11.1-1.5-11.1c0.5-10.3-4.3-8.5-4.3-8.5"/>
		<path class="st3" d="M145.5,156.1c-3.4,10.3,2.3,13.2,2.3,13.2c0.2,12.2,5.1,10.1,5.1,10.1"/>
		<path class="st3" d="M151.5,175.5c-3.5,9.8,1.8,12,1.8,12c-0.2,11.3,4.5,8.9,4.5,8.9"/>
		<path class="st3" d="M157,192.9c-3.8,9.9,1.5,12.4,1.5,12.4c-0.4,11.6,4.4,9.3,4.4,9.3"/>
		<path class="st3" d="M162.2,209.9c-4.6,7.1,0.9,10.7,0.9,10.7c-1.1,9.5,4.1,9,4.1,9"/>
		<path class="st3" d="M167.1,229.5c3.7-10.2-1.9-13.3-1.9-13.3c0.2-12.3-4.8-10.3-4.8-10.3"/>
		<path class="st3" d="M161.7,211.5c3.8-9.8-1.4-12.1-1.4-12.1c0.5-11.4-4.2-9-4.2-9"/>
		<path class="st3" d="M157.3,195.5c3.3-10.9-1.9-12.8-1.9-12.8c0-12.2-4.5-9.1-4.5-9.1"/>
		<path class="st3" d="M151.2,175.6c3.9-8.7-1.5-11.1-1.5-11.1c0.5-10.3-4.3-8.5-4.3-8.5"/>
	</g>
	<g>
		<path class="st3" d="M196.3,247.1c-1-5.1-2.5-2.4-2.5-2.4c-2-3.4-2.5,0.3-2.5,0.3"/>
		<path class="st3" d="M192.2,245.2c-0.9-5-2.2-2.4-2.2-2.4c-1.7-3.4-2.2,0.2-2.2,0.2"/>
		<path class="st3" d="M188.4,243.6c-0.8-5.2-2.2-2.6-2.2-2.6c-1.7-3.6-2.3,0-2.3,0"/>
		<path class="st3" d="M184.8,241.9c-0.3-4.9-1.8-2.5-1.8-2.5c-1.3-3.4-2.2-0.1-2.2-0.1"/>
		<path class="st3" d="M180.9,239.3c0.9,5.3,2.4,2.7,2.4,2.7c1.9,3.6,2.5,0,2.5,0"/>
		<path class="st3" d="M184.7,241.1c0.8,5.2,2.2,2.6,2.2,2.6c1.7,3.6,2.2,0,2.2,0"/>
		<path class="st3" d="M188,243c1.1,5.2,2.3,2.5,2.3,2.5c1.9,3.5,2.3-0.1,2.3-0.1"/>
		<path class="st3" d="M192.2,245.2c0.6,4.9,2,2.3,2,2.3c1.5,3.3,2.1-0.2,2.1-0.2"/>
		<path class="st3" d="M181.6,239.1c-1-5.1-2.5-2.4-2.5-2.4c-2-3.4-2.5,0.3-2.5,0.3"/>
		<path class="st3" d="M177.5,237.2c-0.9-5-2.2-2.4-2.2-2.4c-1.7-3.4-2.2,0.2-2.2,0.2"/>
		<path class="st3" d="M173.7,235.6c-0.8-5.2-2.2-2.6-2.2-2.6c-1.7-3.6-2.3,0-2.3,0"/>
		<path class="st3" d="M170.1,233.9c-0.3-4.9-1.8-2.5-1.8-2.5c-1.3-3.4-2.2-0.1-2.2-0.1"/>
		<path class="st3" d="M166.1,231.3c0.9,5.3,2.4,2.7,2.4,2.7c1.9,3.6,2.5,0,2.5,0"/>
		<path class="st3" d="M169.9,233.1c0.8,5.2,2.2,2.6,2.2,2.6c1.7,3.6,2.2,0,2.2,0"/>
		<path class="st3" d="M173.3,235c1.1,5.2,2.3,2.5,2.3,2.5c1.9,3.5,2.3-0.1,2.3-0.1"/>
		<path class="st3" d="M177.5,237c0.6,4.9,2,2.3,2,2.3c1.5,3.3,2.1-0.2,2.1-0.2"/>
	</g>
	<g>
		<path class="st3" d="M257.7,230c-5.8-1.7-3.3,0.9-3.3,0.9c-4.2,0-0.4,2.3-0.4,2.3"/>
		<path class="st3" d="M254.5,232.5c-5.7-1.8-3.2,0.7-3.2,0.7c-4.1-0.2-0.3,2-0.3,2"/>
		<path class="st3" d="M251.8,234.9c-5.9-1.9-3.5,0.6-3.5,0.6c-4.4-0.3-0.6,1.9-0.6,1.9"/>
		<path class="st3" d="M249,237.1c-5.4-2.2-3.3,0.3-3.3,0.3c-4.1-0.6-0.7,1.8-0.7,1.8"/>
		<path class="st3" d="M245.1,239.2c6,1.9,3.6-0.7,3.6-0.7c4.5,0.2,0.7-2.1,0.7-2.1"/>
		<path class="st3" d="M248.1,236.9c5.9,1.9,3.4-0.5,3.4-0.5c4.4,0.4,0.6-1.9,0.6-1.9"/>
		<path class="st3" d="M251,235c6,1.7,3.4-0.7,3.4-0.7c4.4,0.2,0.5-2,0.5-2"/>
		<path class="st3" d="M254.5,232.5c5.5,1.9,3-0.6,3-0.6c4,0.3,0.3-1.9,0.3-1.9"/>
		<path class="st3" d="M245,238.5c-5.8-1.7-3.3,0.9-3.3,0.9c-4.2,0-0.4,2.3-0.4,2.3"/>
		<path class="st3" d="M241.9,241c-5.7-1.8-3.2,0.7-3.2,0.7c-4.1-0.2-0.3,2-0.3,2"/>
		<path class="st3" d="M239.2,243.4c-5.9-1.9-3.5,0.6-3.5,0.6c-4.4-0.3-0.6,1.9-0.6,1.9"/>
		<path class="st3" d="M236.3,245.6c-5.4-2.2-3.3,0.3-3.3,0.3c-4.1-0.6-0.7,1.8-0.7,1.8"/>
		<path class="st3" d="M232.4,247.7c6,1.9,3.6-0.7,3.6-0.7c4.5,0.2,0.7-2.1,0.7-2.1"/>
		<path class="st3" d="M235.5,245.4c5.9,1.9,3.4-0.5,3.4-0.5c4.4,0.4,0.6-1.9,0.6-1.9"/>
		<path class="st3" d="M238.4,243.5c6,1.7,3.4-0.7,3.4-0.7c4.4,0.2,0.5-2,0.5-2"/>
		<path class="st3" d="M241.7,240.9c5.5,1.9,3-0.6,3-0.6c4,0.3,0.3-1.9,0.3-1.9"/>
	</g>
	<g>
		<g>
			<path class="st9" d="M177.9,25.9c-0.8,0.8-1.5,1.5-2.3,2.3c-1.7,0.4-3.4,0.8-5.2,1.3c-0.7,0.8-1.4,1.5-2.1,2.3
				c-0.1,0.6-0.1,1.3-0.2,1.9c-1.3,0.6-2.7,1.1-4,1.7c-0.8-0.1-1.6-0.1-2.3-0.2c-0.9,0.7-1.9,1.5-2.8,2.2c-0.7,0.3-1.5,0.5-2.2,0.8
				c-0.1,0.8-0.1,1.5-0.2,2.3c-0.8-0.1-1.6-0.1-2.4-0.2c-0.5,0.7-1,1.5-1.5,2.2c-0.7,0.6-1.4,1.1-2.1,1.7c0.2,0.9,0.5,1.7,0.7,2.5
				c-0.1,1.5-0.2,3-0.3,4.5c-1.1,0.8-2.1,1.6-3.2,2.3c0,0.8-0.1,1.6-0.1,2.3c0,0.9-0.1,1.8-0.1,2.7c0.7,0,1.3,0,2,0.1
				c0.8,1.1,1.6,2.2,2.3,3.2c0.5,0.5,1,1,1.5,1.5c0.5,0.7,1,1.5,1.5,2.2c1.9,1.1,3.8,2.1,5.7,3.2c1.1,0.4,2.2,0.9,3.3,1.3
				c1.9-0.3,3.8-0.5,5.7-0.8c0.7-0.2,1.3-0.3,2-0.5c1.5,0.2,2.9,0.4,4.4,0.7c3.2-0.8,6.4-1.7,9.7-2.5c7.9,1.6,4.6,3.2,4.6,3.2
				c1,0,2,0,3.1,0c0.7,0.3,1.5,0.6,2.2,0.9c0.7-0.4,1.3-0.7,2-1.1c0.5,0.9,1,1.8,1.5,2.7c-0.4,0.6-0.7,1.2-1.1,1.9
				c0.4,0.5,0.7,1,1.1,1.4c-0.7,0.5-1.5,1-2.2,1.6c0.7,0.7,1.5,1.4,2.2,2c1.3,1,2.6,2.1,4,3.1c0,0.8,0,1.7,0,2.5
				c0.9,0.8,1.8,1.6,2.6,2.4c0,1,0,2,0,3c0.7,0.6,1.3,1.2,2,1.7c-0.9,1.1-1.9,2.2-2.8,3.3c-4.4,5.8,0.3,8,0.3,8
				c1.4,1.7,2.7,3.4,4,5.1c0.3,1.8,0.6,3.6,0.8,5.3c2,2.7,3.9,5.4,5.8,8.2c-0.9,0.4-1.9,0.8-2.8,1.2c1.8,0.6,3.7,1.2,5.5,1.8
				c1.4-0.3,2.8-0.5,4.2-0.7c1.4,0.2,2.9,0.4,4.3,0.6c3-1.7,6-3.3,9-4.9c0.4-0.6,0.8-1.2,1.2-1.9c1.3-0.6,2.6-1.2,3.9-1.8
				c-0.3-0.7-0.7-1.5-1-2.2c1.4-0.4,2.8-0.9,4.3-1.3c0.2-2.1,0.4-4.3,0.6-6.4c1.9-1.3,3.9-2.6,5.8-3.9c1,0,2,0,3,0
				c0.9-0.9,1.9-1.8,2.8-2.7c0.1-1.7,0.3-3.4,0.4-5.1c0.6-0.6,1.1-1.3,1.7-1.9c-0.6-1-1.2-2.1-1.8-3.1c0.2-0.8,0.4-1.6,0.6-2.3
				c-0.5-0.9-1.1-1.7-1.6-2.6c1.2-1.4,2.3-2.9,3.5-4.3c1.6-1.6,3.1-3.2,4.7-4.8c1.5-1.1,2.9-2.1,4.4-3.2c10.4-6.6,6.9-5.6,6.9-5.6
				c0-1.8,0-3.7,0-5.5c-2.4-0.4-4.9-0.7-7.3-1.1c-1.6-0.5-3.2-1-4.8-1.5c0.5-1.6,1.1-3.2,1.6-4.8c-2.3-0.3-4.6-0.6-6.9-1
				c-1.3-1.1-2.7-2.3-4-3.4c-0.6-0.9-1.2-1.9-1.8-2.8c-0.8-2.3-1.7-4.7-2.5-7c-2.9-2-5.9-4.1-8.8-6.1c2.8,0.3,5.6,0.6,8.4,0.9
				c-2.5-1.3-4.9-2.6-7.4-3.8c-3-0.1-6.1-0.1-9.1-0.2c-2.8,0.9-5.6,1.8-8.5,2.7c-0.8,1.3-1.7,2.5-2.5,3.8
				c-7.7-2.1-15.2-4.3-22.6-6.7c-1.4-0.4-1.4-1.9,0-2.3c1.6-0.5,3.2-1.1,4.9-1.7c0.4-1.5,0.9-3,1.3-4.4c-3.5,0.5-7,1-10.5,1.5
				c-4.2-0.1-8.3-0.2-12.5-0.4C180.9,24.1,179.4,25,177.9,25.9z"/>
			<path class="st10" d="M232.3,43.3c-0.7,8.1-1.5,16.1-2.5,24.1c-2.1-0.1-4.3-0.2-6.4-0.3c-6.1-2.8-12.2-5.5-18.2-8.2
				c-1.6,1-3.2,2.1-4.7,3.1c-0.7-1.7-1.4-3.4-2.1-5.1c-1.4-0.1-2.8-0.2-4.1-0.3c0.1-1.4,0.3-2.8,0.4-4.1c-5.2-0.1-10.3-0.2-15.5-0.3
				c0.2-1.8,0.4-3.6,0.6-5.4c1.7-1,3.4-2.1,5-3.1c-0.4-2.9-0.7-5.8-1-8.7c1.9-1,3.9-1.9,5.8-2.9c2.5-0.5,4.9-1,7.3-1.6
				c1.9,0.1,3.9,0.3,5.8,0.4c3.2,1.6,6.5,3.1,9.8,4.6c1.3,0.3,2.6,0.6,3.9,0.9c1.8,0.2,3.7,0.5,5.5,0.7c0.9-1.2,1.9-2.4,2.8-3.6l0,0
				c2.3-0.2,4.6-0.4,6.9-0.6c1.6,0.9,3.2,1.9,4.7,2.8c0,1.8-0.1,3.5-0.2,5.3C234.9,41.8,233.6,42.6,232.3,43.3
				c1.3-0.8,2.6-1.6,3.9-2.4"/>
		</g>
	</g>
	<g>
		<path class="st11" d="M281.9,64.9"/>
	</g>
	<path class="st11" d="M113.5,82.1"/>
</g>
<g id="Layer_4">
	<g>
		<g>
			<path class="st3" d="M127.2,86.3c10,7.9,14.3,5.1,14.3,5.2c12.9,5.7,11.7,1,11.7,1.1"/>
			<path class="st3" d="M148.8,91.8c9.6,7,13.1,3.9,13.1,4c11.9,4.7,10.4,0.1,10.4,0.2"/>
			<path class="st3" d="M168.5,95.2c9.6,6.6,13.5,3.4,13.5,3.4c12.2,4.2,11-0.4,11-0.3"/>
			<path class="st3" d="M187.7,97.4c6.4,5.8,11.6,2.5,11.6,2.5c9.8,3.5,10.5-0.8,10.5-0.8"/>
			<path class="st3" d="M209.8,99.1c-9.9-5.4-14.6-2.1-14.6-2.1c-13-3.8-12.1,0.3-12.1,0.4"/>
			<path class="st3" d="M189.3,98.3c-9.4-6-13.2-3.1-13.2-3c-11.9-4.6-10.5-0.4-10.5-0.3"/>
			<path class="st3" d="M171.3,96c-10.8-6.6-14-3.8-14-3.8c-12.9-5.4-10.6-1-10.6-0.9"/>
			<path class="st3" d="M148.8,91.8c-8.3-6.8-12-4.3-12-4.3c-10.7-5.6-9.7-1.4-9.7-1.4"/>
			<path class="st3" d="M206.4,99.7c10,5.3,14.5,1.2,14.6,1.2c12.9,2.2,12-2.3,12-2.3"/>
			<path class="st3" d="M228.4,99.2c9.4,4.6,13.1,0.4,13.1,0.4c11.8,1.5,10.5-2.8,10.5-2.7"/>
			<path class="st3" d="M248.2,97.2c9.2,4.2,13.3-0.3,13.3-0.3c11.9,1,10.9-3.4,10.9-3.4"/>
			<path class="st3" d="M267.3,94.1c6,4.2,11.3-0.5,11.3-0.6c9.3,0.9,10.3-3.7,10.3-3.7"/>
			<path class="st3" d="M288.8,89.8c-9.3-2.9-14.1,1.8-14.1,1.8c-12.6-0.4-11.9,3.7-11.9,3.7"/>
			<path class="st3" d="M268.8,94.6c-9-3.6-12.9,0.5-12.9,0.5c-11.7-1.4-10.6,2.6-10.6,2.6"/>
			<path class="st3" d="M251,97.2c-10.4-3.9-13.9-0.1-13.9,0c-12.8-1.9-10.8,2-10.8,2.1"/>
			<path class="st3" d="M228.4,99.4c-8.1-4.7-12.1-1-12.1-1c-10.8-2.7-10.1,1.3-10.1,1.4"/>
		</g>
	</g>
</g>
</svg>
