<?xml version="1.0" encoding="utf-8"?>
<!-- Generator: Adobe Illustrator 21.1.0, SVG Export Plug-In . SVG Version: 6.00 Build 0)  -->
<svg version="1.1" xmlns="http://www.w3.org/2000/svg" xmlns:xlink="http://www.w3.org/1999/xlink" x="0px" y="0px"
	 viewBox="0 0 1100.7 622" style="enable-background:new 0 0 1100.7 622;" xml:space="preserve">
<style type="text/css">
	.st0{opacity:0.61;fill:#11743B;}
	.st1{opacity:0.23;fill:#DF3C26;}
	.st2{opacity:0.36;fill:#2C3996;}
	.st3{fill:#231F20;stroke:#231F20;stroke-miterlimit:10;}
	.st4{opacity:0.69;fill:#17743B;stroke:#ED2224;stroke-miterlimit:10;}
	.st5{opacity:0.65;fill:#357C3C;stroke:#C9529E;stroke-miterlimit:10;}
	.st6{opacity:0.7;fill:#0A8C44;stroke:#C9529E;stroke-miterlimit:10;}
	.st7{opacity:0.71;fill:#4860AC;stroke:#231F20;stroke-miterlimit:10;}
	.st8{opacity:0.71;fill:#4A65AF;stroke:#231F20;stroke-miterlimit:10;}
	.st9{opacity:0.73;fill:#4263AE;stroke:#231F20;stroke-miterlimit:10;}
	.st10{opacity:0.9;fill:#101142;}
	.st11{opacity:0.88;fill:#131544;}
	.st12{opacity:0.71;fill:#4F6CB4;stroke:#231F20;stroke-miterlimit:10;}
	.st13{opacity:0.59;fill:#231F20;stroke:#0E0E1D;stroke-miterlimit:10;}
	.st14{opacity:0.54;fill:#231F20;stroke:#0E0E1D;stroke-miterlimit:10;}
	.st15{opacity:0.66;fill:#0E552B;stroke:#0E0E1D;stroke-miterlimit:10;}
	.st16{opacity:0.84;fill:#101142;}
	.st17{fill:#231F20;stroke:#A57AB6;stroke-miterlimit:10;}
	.st18{opacity:0.64;fill:#70CCDA;stroke:#336DB6;stroke-miterlimit:10;}
	.st19{opacity:0.65;fill:#70CCDA;stroke:#336DB6;stroke-miterlimit:10;}
</style>
<g id="Layer_5">
	<g id="Layer_6">
		<rect y="3.4" class="st0" width="1107.1" height="620.4"/>
	</g>
	<rect x="-2.1" y="3.4" class="st1" width="1102.8" height="620.4"/>
</g>
<g id="Layer_3">
	<rect x="-1.8" class="st2" width="1104.2" height="623.9"/>
	<polygon class="st3" points="812.5,536 816.1,607.7 818.4,629.5 861.7,629.5 898.4,541.5 	"/>
</g>
<g id="Layer_2">
	<path class="st4" d="M472.6,0c-60.8,171.7,155.3,619,155.3,619l-257.9,0h0C261.7,424.6,198,469.2,198,469.2l-19.1,12.7V240
		C7,97.8,121.6,0,121.6,0H472.6z"/>
	<path class="st5" d="M71.7,578.4c-46.7,25.5-24,47.6-24,47.6l155-3.9C210.9,540.6,71.7,578.4,71.7,578.4z"/>
	<path class="st6" d="M645.1,605.8c-0.3,1.6-2.8,2.5-4,0.8c-8.2-11.7-9.8-16.5-10.7-38.5c-0.8-3.8-1.5-7.7-1.9-11.7
		c-2.8-24.2,1.2-48.6,8.4-71.7l-2.4-36.8c-27.6,70-40.9,146.7-40.9,146.7l7,27.1l48.8-3.3l-0.6-6.7
		C647.4,609.6,646.2,607.7,645.1,605.8z"/>
	<path class="st7" d="M770.9,173.5l40-23.3l47.8-32.2l20.5,9.1c67.9-1.8,101.9,67.9,101.9,67.9l97.6,246.2l5.3,59.2
		c0.5,5.5-30.5-29.2-33.4-33.8l-27-42.3L879.2,319l-127.6,53.3l-28.1-41.9l22.5-30l-53.5-29c32.3-32.2,49.2-68,49.2-68l17.8-25.6
		L770.9,173.5z"/>
	<path class="st8" d="M971.7,568.8c-76.4,8.5-95.7,12-95.7,12l-14.3,48.7L1100,619l-3.5-57.9c0,0-4.2-36-21.2-10.5"/>
	<path class="st9" d="M653.6,481.8c-1.7-10.1,42.6,50.9,88.1,57.2l82.7,80.7l-96.3,2.3c0,0-51.2-60.4-93.7-66.9l3.1-37.6l4.2-18.5
		L653.6,481.8z"/>
	<path class="st10" d="M1050.5,466.5l-27-42.3L981.9,392c0,0,51.5,91.1-110.9,196.7l225.3-43.8c0,0-19.4,5.7-10.7-52.5"/>
	<path class="st11" d="M818.4,548.7c0,68.1-61.4-23.1-61.4-23.1l-117.1-84.7c97.2-27.5,61.2-77.9,61.2-77.9l47.6-17.8
		c3-4.2,0.7-5.1,0,0l12.7,121.5"/>
	<path class="st12" d="M815.6,572.9l2,5l-57.9-49.2l-110.4-87.9l2.7,45.1c0,0,39.8,27.2,94.3,53.3l69.9,68.5l1.5-29.8"/>
	<path class="st13" d="M57.1,572.8c107.2-114.9,157.3-107.6,157.3-107.6C298.8,479.8,377.1,619,377.1,619l-199.2,7
		c-68.8-73.9-136.2,0-136.2,0"/>
	<path class="st14" d="M630.4,550.1c83.1,46.4,93.7,66.9,93.7,66.9h-62.8l-14.2-17.5L630.4,550.1z"/>
	<path class="st15" d="M634.3,447.8l-34,112.4c0,0-45.1-89.6-30.7-102.1L634.3,447.8z"/>
	<path class="st16" d="M980.4,415.3c-52.7,100.9-82,124.2-82,124.2l-22.4,41.3C1045.7,480.6,980,383.1,977.9,376.2L980.4,415.3z"/>
	<path class="st3" d="M662,0c17.1,76,17.1,76,17.1,76s-8-6.6,0,0s4.7,13.9,4.7,13.9l-2.7,6l3.3,23.9c5.1,2.4,3.7,5,3.7,5
		c2.9,10.1,0.2,9.7,0.2,9.7l5.9,5.8c3.6,9.4-2.2,11.5-2.2,11.5l13.3,14.4c57.1,25.8,26.3,62.1,26.3,62.1l-18.3,17l23,30.6l3.5,6.5
		c12.4,14.5-5.5,36.4-5.5,36.4c21.9,5,13.5,32.4,13.5,32.4c0.6,21.6-24.5,14-24.5,14c-6.8,9.1,0,25.4,0,25.4
		c3.1,46.8-82.1,59.8-82.1,59.8l-66.9,4.5l-15.9,7.6C376.1,49.7,477.2,0,477.2,0C662,0,662,0,662,0z"/>
	<path class="st17" d="M779,502.2l71,71.7l25.1-16.8l36.2-24.3c0,0,67.9-66.7,71.1-146.7c3.1-80.1-0.5,5.9-0.5,5.9
		s0.5-5.9-102.7-80.9c-23.5-17.1-119.8,43.5-119.8,43.5C733.8,441.7,779,502.2,779,502.2z"/>
	<path class="st3" d="M744.3,126.1"/>
</g>
<g id="Layer_4">
	<path class="st18" d="M684.4,312c-5.2,94,10.4,69.7,10.4,69.7l-5.5-48.9l3.5-20.7c34.2-172.4-34.4-195.7-61.3-198.5
		c-4.2-0.4-5,5.8-0.8,6.5c16.8,2.6,50.1,0,57.1,4c7,3.9,1.4,12.2,2.7,21l7.6,52.3l-1.6,40L684.4,312z"/>
	<path class="st19" d="M828.8,394.2c-2.8,33.4-15.4,57.8-27.4,73.8c-1.7,2.3-3.4,4.4-5,6.3c-2.1,2.5-5.9-0.4-4.1-3.1v0
		c0.1-0.1,0.1-0.2,0.2-0.3l23.5-41.9c2.3-34.9-35.7-52.9-35.7-52.9l38,18.1"/>
	<path class="st18" d="M914.8,484.2c-17.6-21.9-24.8-43.3-27.6-59.1c-2.8-15.9-1.1-26.3-1.1-26.3L934,390l-35.6,18.6
		c0.2,0.7-5.6,5.9-5.5,6.6L901,457"/>
</g>
</svg>
